<?xml version="1.0" encoding="utf-8"?><svg version="1.1" id="Layer_1" xmlns="http://www.w3.org/2000/svg" xmlns:xlink="http://www.w3.org/1999/xlink" x="0px" y="0px" viewBox="0 0 122.88 64.8" style="enable-background:new 0 0 122.88 64.8" xml:space="preserve"><style type="text/css">.st0{fill-rule:evenodd;clip-rule:evenodd;}</style><g><path class="st0" d="M86.29,9.36C110,7.43,97.88,31.35,122.88,26.48L109.24,50.1C85.13,55.21,95.02,30.18,72.7,32.91L86.29,9.36 L86.29,9.36z M36.59,9.36C12.88,7.43,25,31.35,0,26.48L13.64,50.1c24.11,5.11,14.22-19.93,36.55-17.19L36.59,9.36L36.59,9.36z M37.05,0.5c-1.79,1.03-2.4,3.32-1.37,5.1c0.68,1.19,1.92,1.85,3.2,1.87l-0.15,0.09l20.32,35.19L50.64,57.3l0.15,0.09 c-1.28,0.01-2.34,0.38-3.2,1.87c-0.86,1.48-0.42,4.07,1.37,5.1c1.79,1.03,4.24,0.12,5.1-1.37c0.86-1.49,0.64-2.59,0.02-3.7 l0.15,0.09l7.21-12.49l7.21,12.49l0.15-0.09c-0.63,1.11-0.84,2.22,0.02,3.7c0.86,1.48,3.31,2.4,5.1,1.37 c1.79-1.03,2.22-3.61,1.37-5.1c-0.86-1.49-1.92-1.85-3.2-1.87l0.15-0.09l-8.41-14.56L84.15,7.56L84,7.47 c1.28-0.01,2.51-0.68,3.2-1.87c1.03-1.78,0.42-4.07-1.37-5.1c-1.79-1.03-4.07-0.42-5.1,1.37c-0.68,1.19-0.64,2.59-0.02,3.7 l-0.15-0.09L61.44,38.6L42.32,5.48l-0.15,0.09c0.63-1.11,0.67-2.52-0.02-3.7C41.12,0.08,38.84-0.53,37.05,0.5L37.05,0.5z"/></g></svg>